HIERARCHY
ROOT newVegas:Hips
{
	OFFSET 0.000000 96.479958 0.000000
	CHANNELS 6 Xposition Yposition Zposition Xrotation Yrotation Zrotation
	JOINT newVegas:Pelvis
	{
		OFFSET 0.000000 0.000000 0.000000
		CHANNELS 3 Xrotation Yrotation Zrotation
		JOINT newVegas:LeftUpLeg
		{
			OFFSET 18.735201 -5.666702 -4.541200
			CHANNELS 3 Xrotation Yrotation Zrotation
			JOINT newVegas:LeftLeg
			{
				OFFSET -0.021200 -31.938179 0.493100
				CHANNELS 3 Xrotation Yrotation Zrotation
				JOINT newVegas:LeftFoot
				{
					OFFSET 0.021200 -31.938179 -4.336299
					CHANNELS 3 Xrotation Yrotation Zrotation
					JOINT newVegas:LeftToeBase
					{
						OFFSET 0.943001 -26.722000 15.023500
						CHANNELS 3 Xrotation Yrotation Zrotation
						End Site
						{
							OFFSET 0.000000 30.670183 0.000000
						}
					}
				}
				JOINT newVegas:Left_PantLeg
				{
					OFFSET 0.663870 -9.044666 -1.108900
					CHANNELS 3 Xrotation Yrotation Zrotation
					End Site
					{
						OFFSET 1.415995 20.635357 0.000000
					}
				}
			}
		}
		JOINT newVegas:RightUpLeg
		{
			OFFSET -18.735201 -5.666702 -4.541200
			CHANNELS 3 Xrotation Yrotation Zrotation
			JOINT newVegas:RightLeg
			{
				OFFSET 0.018946 -31.938133 0.493100
				CHANNELS 3 Xrotation Yrotation Zrotation
				JOINT newVegas:RightFoot
				{
					OFFSET -0.018946 -31.938126 -4.336299
					CHANNELS 3 Xrotation Yrotation Zrotation
					JOINT newVegas:RightToeBase
					{
						OFFSET -0.943001 -26.722004 15.023500
						CHANNELS 3 Xrotation Yrotation Zrotation
						End Site
						{
							OFFSET 0.000000 30.670187 0.000000
						}
					}
				}
				JOINT newVegas:Right_PantLeg
				{
					OFFSET -0.661674 -9.044716 -1.108900
					CHANNELS 3 Xrotation Yrotation Zrotation
					End Site
					{
						OFFSET -1.415958 20.635269 0.000000
					}
				}
			}
		}
	}
	JOINT newVegas:Spine
	{
		OFFSET 0.000000 10.199997 -0.299500
		CHANNELS 3 Xrotation Yrotation Zrotation
		JOINT newVegas:Spine1
		{
			OFFSET 0.000000 11.900002 -1.516600
			CHANNELS 3 Xrotation Yrotation Zrotation
			JOINT newVegas:Spine2
			{
				OFFSET 0.000000 13.600006 -2.842500
				CHANNELS 3 Xrotation Yrotation Zrotation
				JOINT newVegas:Neck
				{
					OFFSET 0.000000 9.624100 -2.890100
					CHANNELS 3 Xrotation Yrotation Zrotation
					JOINT newVegas:Head
					{
						OFFSET 0.000000 14.068802 -1.351900
						CHANNELS 3 Xrotation Yrotation Zrotation
						JOINT newVegas:Hair_Back
						{
							OFFSET 0.000000 3.231903 -17.524799
							CHANNELS 3 Xrotation Yrotation Zrotation
							End Site
							{
								OFFSET 0.000000 19.849884 0.000000
							}
						}
						JOINT newVegas:Hair_Front
						{
							OFFSET 0.000000 31.260406 4.573800
							CHANNELS 3 Xrotation Yrotation Zrotation
							JOINT newVegas:Hair_Front1
							{
								OFFSET 0.000000 2.284103 11.993300
								CHANNELS 3 Xrotation Yrotation Zrotation
								JOINT newVegas:Hair_Front2
								{
									OFFSET 0.000000 2.284103 11.993300
									CHANNELS 3 Xrotation Yrotation Zrotation
									End Site
									{
										OFFSET 0.000000 12.208862 0.000000
									}
								}
							}
						}
						JOINT newVegas:Jowel
						{
							OFFSET 0.000000 -7.458206 6.864100
							CHANNELS 3 Xrotation Yrotation Zrotation
							End Site
							{
								OFFSET 0.000000 19.849884 0.000000
							}
						}
					}
				}
				JOINT newVegas:LeftShoulder
				{
					OFFSET 15.263000 10.923401 -0.547700
					CHANNELS 3 Xrotation Yrotation Zrotation
					JOINT newVegas:LeftArm
					{
						OFFSET 25.438599 -2.830597 -13.032500
						CHANNELS 3 Xrotation Yrotation Zrotation
						JOINT newVegas:LeftForeArm
						{
							OFFSET 29.960503 0.000000 0.000000
							CHANNELS 3 Xrotation Yrotation Zrotation
							JOINT newVegas:LeftHand
							{
								OFFSET 27.849251 0.000000 0.000000
								CHANNELS 3 Xrotation Yrotation Zrotation
								JOINT newVegas:LeftHandThumb1
								{
									OFFSET 4.487587 -3.305161 6.305391
									CHANNELS 3 Xrotation Yrotation Zrotation
									JOINT newVegas:LeftHandThumb2
									{
										OFFSET 5.480453 -3.164139 3.164143
										CHANNELS 3 Xrotation Yrotation Zrotation
										JOINT newVegas:LeftHandThumb3
										{
											OFFSET 5.159721 -2.978973 2.978967
											CHANNELS 3 Xrotation Yrotation Zrotation
											End Site
											{
												OFFSET 2.494507 5.926697 1.738678
											}
										}
									}
								}
								JOINT newVegas:LeftHandIndex1
								{
									OFFSET 18.578728 -0.527832 5.208049
									CHANNELS 3 Xrotation Yrotation Zrotation
									JOINT newVegas:LeftHandIndex2
									{
										OFFSET 3.192009 0.000000 0.000000
										CHANNELS 3 Xrotation Yrotation Zrotation
										JOINT newVegas:LeftHandIndex3
										{
											OFFSET 3.835129 0.000000 0.000000
											CHANNELS 3 Xrotation Yrotation Zrotation
											End Site
											{
												OFFSET -0.034599 3.816971 0.371180
											}
										}
									}
								}
								JOINT newVegas:LeftHandMiddle1
								{
									OFFSET 18.476105 0.000000 0.000000
									CHANNELS 3 Xrotation Yrotation Zrotation
									JOINT newVegas:LeftHandMiddle2
									{
										OFFSET 3.324875 0.000000 0.000000
										CHANNELS 3 Xrotation Yrotation Zrotation
										JOINT newVegas:LeftHandMiddle3
										{
											OFFSET 4.596550 0.000000 0.000000
											CHANNELS 3 Xrotation Yrotation Zrotation
											End Site
											{
												OFFSET 0.057701 4.578827 0.399218
											}
										}
									}
								}
								JOINT newVegas:LeftHandRing1
								{
									OFFSET 17.732719 0.121887 -4.201567
									CHANNELS 3 Xrotation Yrotation Zrotation
									JOINT newVegas:LeftHandRing2
									{
										OFFSET 2.733170 0.000000 0.000000
										CHANNELS 3 Xrotation Yrotation Zrotation
										JOINT newVegas:LeftHandRing3
										{
											OFFSET 3.178268 0.000000 0.000000
											CHANNELS 3 Xrotation Yrotation Zrotation
											End Site
											{
												OFFSET 0.119102 3.170624 0.185394
											}
										}
									}
								}
								JOINT newVegas:LeftHandPinky1
								{
									OFFSET 15.989624 -0.606689 -7.535461
									CHANNELS 3 Xrotation Yrotation Zrotation
									JOINT newVegas:LeftHandPinky2
									{
										OFFSET 2.538986 0.000000 0.000000
										CHANNELS 3 Xrotation Yrotation Zrotation
										JOINT newVegas:LeftHandPinky3
										{
											OFFSET 2.593102 0.000000 0.000000
											CHANNELS 3 Xrotation Yrotation Zrotation
											End Site
											{
												OFFSET -0.150902 2.584198 0.152708
											}
										}
									}
								}
							}
							JOINT newVegas:Left_Sleeve
							{
								OFFSET 0.267448 -0.649796 0.577675
								CHANNELS 3 Xrotation Yrotation Zrotation
								End Site
								{
									OFFSET 0.000000 15.991241 0.000000
								}
							}
							JOINT newVegas:Left_CapeC
							{
								OFFSET 15.715958 -8.608795 -6.935905
								CHANNELS 3 Xrotation Yrotation Zrotation
								JOINT newVegas:Left_CapeC1
								{
									OFFSET 0.000000 -8.688499 0.000000
									CHANNELS 3 Xrotation Yrotation Zrotation
									End Site
									{
										OFFSET 0.000000 8.688499 0.000000
									}
								}
							}
						}
						JOINT newVegas:Left_CapeB
						{
							OFFSET 26.118385 -8.608795 -7.079235
							CHANNELS 3 Xrotation Yrotation Zrotation
							JOINT newVegas:Left_CapeB1
							{
								OFFSET 0.000000 -8.688499 0.000000
								CHANNELS 3 Xrotation Yrotation Zrotation
								End Site
								{
									OFFSET 0.000000 8.688499 0.000000
								}
							}
						}
						JOINT newVegas:Left_CapeA
						{
							OFFSET 5.115639 -8.608795 -10.395809
							CHANNELS 3 Xrotation Yrotation Zrotation
							JOINT newVegas:Left_CapeA1
							{
								OFFSET 0.000000 -8.688499 0.000000
								CHANNELS 3 Xrotation Yrotation Zrotation
								End Site
								{
									OFFSET 0.000000 8.688499 0.000000
								}
							}
						}
					}
				}
				JOINT newVegas:RightShoulder
				{
					OFFSET -15.263000 10.923401 -0.547700
					CHANNELS 3 Xrotation Yrotation Zrotation
					JOINT newVegas:RightArm
					{
						OFFSET -25.438599 -2.830597 -13.032500
						CHANNELS 3 Xrotation Yrotation Zrotation
						JOINT newVegas:RightForeArm
						{
							OFFSET -29.960503 0.000000 0.000000
							CHANNELS 3 Xrotation Yrotation Zrotation
							JOINT newVegas:RightHand
							{
								OFFSET -27.849251 0.000000 0.000000
								CHANNELS 3 Xrotation Yrotation Zrotation
								JOINT newVegas:RightHandThumb1
								{
									OFFSET -4.487587 -3.305161 6.305391
									CHANNELS 3 Xrotation Yrotation Zrotation
									JOINT newVegas:RightHandThumb2
									{
										OFFSET -5.480453 -3.164139 3.164143
										CHANNELS 3 Xrotation Yrotation Zrotation
										JOINT newVegas:RightHandThumb3
										{
											OFFSET -5.159721 -2.978973 2.978967
											CHANNELS 3 Xrotation Yrotation Zrotation
											End Site
											{
												OFFSET -2.494507 5.926697 1.738678
											}
										}
									}
								}
								JOINT newVegas:RightHandIndex1
								{
									OFFSET -18.578728 -0.527832 5.208049
									CHANNELS 3 Xrotation Yrotation Zrotation
									JOINT newVegas:RightHandIndex2
									{
										OFFSET -3.192009 0.000000 0.000000
										CHANNELS 3 Xrotation Yrotation Zrotation
										JOINT newVegas:RightHandIndex3
										{
											OFFSET -3.835129 0.000000 0.000000
											CHANNELS 3 Xrotation Yrotation Zrotation
											End Site
											{
												OFFSET 0.034599 3.816971 0.371180
											}
										}
									}
								}
								JOINT newVegas:RightHandMiddle1
								{
									OFFSET -18.476105 0.000000 0.000000
									CHANNELS 3 Xrotation Yrotation Zrotation
									JOINT newVegas:RightHandMiddle2
									{
										OFFSET -3.324875 0.000000 0.000000
										CHANNELS 3 Xrotation Yrotation Zrotation
										JOINT newVegas:RightHandMiddle3
										{
											OFFSET -4.596550 0.000000 0.000000
											CHANNELS 3 Xrotation Yrotation Zrotation
											End Site
											{
												OFFSET -0.057701 4.578827 0.399218
											}
										}
									}
								}
								JOINT newVegas:RightHandRing1
								{
									OFFSET -17.732719 0.121887 -4.201567
									CHANNELS 3 Xrotation Yrotation Zrotation
									JOINT newVegas:RightHandRing2
									{
										OFFSET -2.733170 0.000000 0.000000
										CHANNELS 3 Xrotation Yrotation Zrotation
										JOINT newVegas:RightHandRing3
										{
											OFFSET -3.178268 0.000000 0.000000
											CHANNELS 3 Xrotation Yrotation Zrotation
											End Site
											{
												OFFSET -0.119102 3.170624 0.185394
											}
										}
									}
								}
								JOINT newVegas:RightHandPinky1
								{
									OFFSET -15.989624 -0.606689 -7.535461
									CHANNELS 3 Xrotation Yrotation Zrotation
									JOINT newVegas:RightHandPinky2
									{
										OFFSET -2.538986 0.000000 0.000000
										CHANNELS 3 Xrotation Yrotation Zrotation
										JOINT newVegas:RightHandPinky3
										{
											OFFSET -2.593102 0.000000 0.000000
											CHANNELS 3 Xrotation Yrotation Zrotation
											End Site
											{
												OFFSET 0.150902 2.584198 0.152708
											}
										}
									}
								}
							}
							JOINT newVegas:Right_CapeC
							{
								OFFSET -15.715958 -8.608795 -6.935905
								CHANNELS 3 Xrotation Yrotation Zrotation
								JOINT newVegas:Right_CapeC1
								{
									OFFSET 0.000000 -8.688499 0.000000
									CHANNELS 3 Xrotation Yrotation Zrotation
									End Site
									{
										OFFSET 0.000000 8.688499 0.000000
									}
								}
							}
							JOINT newVegas:Right_Sleeve
							{
								OFFSET -0.267448 -0.649994 0.577675
								CHANNELS 3 Xrotation Yrotation Zrotation
								End Site
								{
									OFFSET 0.000000 15.991302 0.000000
								}
							}
						}
						JOINT newVegas:Right_CapeA
						{
							OFFSET -5.115540 -8.608795 -10.395824
							CHANNELS 3 Xrotation Yrotation Zrotation
							JOINT newVegas:Right_CapeA1
							{
								OFFSET 0.000000 -8.688499 0.000000
								CHANNELS 3 Xrotation Yrotation Zrotation
								End Site
								{
									OFFSET 0.000000 8.688499 0.000000
								}
							}
						}
						JOINT newVegas:Right_CapeB
						{
							OFFSET -26.118187 -8.608795 -7.079266
							CHANNELS 3 Xrotation Yrotation Zrotation
							JOINT newVegas:Right_CapeB1
							{
								OFFSET 0.000000 -8.688499 0.000000
								CHANNELS 3 Xrotation Yrotation Zrotation
								End Site
								{
									OFFSET 0.000000 8.688499 0.000000
								}
							}
						}
					}
				}
				JOINT newVegas:Left_Collar
				{
					OFFSET 18.625099 8.655502 8.828100
					CHANNELS 3 Xrotation Yrotation Zrotation
					JOINT newVegas:Left_Collar1
					{
						OFFSET 14.783401 10.540405 -1.259500
						CHANNELS 3 Xrotation Yrotation Zrotation
						End Site
						{
							OFFSET 0.000000 18.199875 0.000000
						}
					}
				}
				JOINT newVegas:Collar_Back
				{
					OFFSET 0.000000 15.630707 -20.132601
					CHANNELS 3 Xrotation Yrotation Zrotation
					End Site
					{
						OFFSET 0.000000 22.523010 0.000000
					}
				}
				JOINT newVegas:Left_Peck
				{
					OFFSET 17.239599 -5.132599 25.482599
					CHANNELS 3 Xrotation Yrotation Zrotation
					End Site
					{
						OFFSET 0.000000 22.523010 0.000000
					}
				}
				JOINT newVegas:Right_Peck
				{
					OFFSET -17.239599 -5.132202 25.482599
					CHANNELS 3 Xrotation Yrotation Zrotation
					End Site
					{
						OFFSET 0.000000 22.523010 0.000000
					}
				}
				JOINT newVegas:Right_Collar
				{
					OFFSET -18.625099 8.655792 8.828100
					CHANNELS 3 Xrotation Yrotation Zrotation
					JOINT newVegas:Right_Collar1
					{
						OFFSET -14.783401 10.539993 -1.259500
						CHANNELS 3 Xrotation Yrotation Zrotation
						End Site
						{
							OFFSET 0.000000 18.199631 0.000000
						}
					}
				}
			}
		}
		JOINT newVegas:Belly
		{
			OFFSET 0.000000 -6.540398 9.014299
			CHANNELS 3 Xrotation Yrotation Zrotation
			End Site
			{
				OFFSET 0.000000 11.566666 0.000000
			}
		}
	}
	JOINT newVegas:ElvisFacialAnim_Joint
	{
		OFFSET 1.000000 -95.330101 -8.825800
		CHANNELS 3 Xrotation Yrotation Zrotation
		End Site
		{
			OFFSET 0.000000 35.315800 0.000000
		}
	}
}
MOTION
Frames: 4
Frame Time: 0.033333
-2.283005 92.636795 2.715885 -16.898696 -38.955011 -9.304418 -0.000000 -0.000002 -0.000000 -21.868811 41.842186 31.868563 29.220526 -0.827910 -0.944283 -2.552522 1.930415 -6.177229 0.000000 0.000000 -0.000000 0.000000 0.000000 0.000000 6.361088 5.356142 -7.015482 33.062866 0.105449 1.183784 -24.533186 -18.006892 5.277329 -0.000000 0.000002 -0.000000 0.000001 0.000001 -0.000001 7.990042 -0.091400 -0.220778 16.413440 -0.126022 -0.751257 16.413515 -0.192922 -0.721090 0.160376 2.999841 0.240076 0.160367 2.999871 0.240062 -0.000001 0.000002 -0.000001 0.160290 2.999852 0.240074 0.160443 2.999855 0.240063 -0.000002 0.000001 0.000001 -0.000001 0.000002 -0.000001 -37.573987 -4.822599 1.545763 -41.632421 -7.020358 -61.688199 0.000043 -64.986634 0.000055 -119.353143 1.121837 32.549721 4.709225 9.560370 3.111984 19.473195 -1.474906 7.636922 -0.000001 -0.000004 -0.000001 -0.212812 3.933721 -36.747128 2.942132 5.078904 -60.144610 -0.000001 0.000000 -0.000002 0.405916 5.507029 -52.453162 3.387132 5.308615 -65.057477 -0.000000 -0.000002 0.000002 -0.074388 5.736754 -61.061427 4.055051 5.569493 -72.094907 0.000001 0.000003 0.000005 -6.565549 4.545169 -72.425215 3.299630 5.267187 -64.107841 -0.000001 -0.000003 -0.000003 -0.000000 -0.000002 0.000002 -0.000000 -0.000002 0.000002 -0.000000 -0.000002 0.000002 -0.000002 -0.000002 0.000002 -0.000002 -0.000001 0.000002 -0.000002 -0.000002 0.000002 -0.000004 -0.000003 0.000002 -41.176291 -8.605655 -9.942314 -46.812819 58.242369 100.941788 0.000707 98.439398 -0.000690 -52.468304 -17.209565 -29.269410 8.377125 -4.904134 11.021992 21.620199 -18.183905 -18.379206 -0.000000 -0.000002 -0.000001 -0.920035 1.683582 12.434973 0.748109 -2.533466 32.898272 -0.000000 0.000000 0.000001 3.413058 -7.186249 51.650259 6.296805 -4.359581 110.634639 -0.000000 -0.000000 0.000001 -3.349048 -2.600407 57.010578 5.440874 -4.590883 99.698174 -0.000001 0.000001 -0.000001 -3.996435 -3.303961 64.593864 4.058821 -4.618637 82.610516 -0.000000 -0.000000 0.000001 0.000000 0.000004 0.000003 0.000001 0.000001 -0.000002 0.000000 0.000004 0.000001 0.000000 0.000003 0.000001 0.000000 0.000003 0.000002 0.000000 0.000003 0.000001 0.000001 0.000003 0.000003 0.000001 -0.000001 0.000000 0.000001 -0.000001 0.000000 0.000001 -0.000001 0.000000 0.000001 -0.000001 0.000000 0.000001 -0.000001 0.000000 0.000001 -0.000001 0.000000 0.000001 -0.000001 0.000000 -0.000000 -0.000005 -0.000000 -0.000000 -0.000002 -0.000000 
-2.071913 92.661957 2.448877 -16.385492 -38.909532 -8.989184 -0.000001 0.000003 0.000001 -22.285324 41.525344 31.602011 29.021477 -0.624598 -1.172954 -2.200971 2.123574 -5.799891 -0.000000 -0.000000 0.000000 -0.000000 -0.000000 -0.000000 5.427040 5.356790 -6.966362 33.325258 0.001372 1.275909 -24.115004 -17.878824 5.159892 0.000000 0.000001 0.000000 0.000003 -0.000001 0.000000 8.253216 0.582197 -0.528132 15.654838 0.212311 -0.927141 15.652586 0.167998 -0.880592 0.076023 2.821602 0.245438 0.076007 2.821612 0.245429 0.000001 -0.000004 0.000002 0.076007 2.821609 0.245435 0.076015 2.821606 0.245434 0.000003 -0.000001 -0.000001 0.000001 -0.000004 0.000002 -37.473092 -4.172374 1.055366 -40.217045 -6.506425 -63.363057 0.000002 -64.421286 0.000012 -121.199357 -0.196148 29.755839 4.709225 9.560372 3.111985 19.473194 -1.474907 7.636922 0.000004 -0.000004 -0.000003 -0.212811 3.933723 -36.747128 2.942137 5.078894 -60.144617 0.000004 0.000001 -0.000000 0.405916 5.507033 -52.453162 3.387129 5.308616 -65.057470 -0.000003 -0.000001 -0.000001 -0.074387 5.736754 -61.061420 4.055049 5.569489 -72.094907 0.000001 -0.000002 -0.000004 -6.565551 4.545177 -72.425215 3.299629 5.267189 -64.107841 0.000001 -0.000007 -0.000002 -0.000000 -0.000001 0.000001 -0.000000 -0.000001 0.000001 -0.000001 -0.000001 0.000001 0.000000 0.000001 -0.000001 -0.000000 0.000001 -0.000003 0.000000 0.000001 -0.000001 0.000000 0.000000 -0.000000 -41.155725 -8.767838 -9.951942 -45.072268 58.918933 98.301360 -0.001115 98.795838 0.001111 -51.631992 -20.258450 -28.032927 8.377123 -4.904133 11.021992 21.620201 -18.183905 -18.379207 0.000001 -0.000002 0.000003 -0.920035 1.683582 12.434971 0.748110 -2.533466 32.898272 -0.000001 -0.000001 0.000000 3.413057 -7.186247 51.650259 6.296804 -4.359580 110.634646 -0.000000 0.000000 -0.000000 -3.349053 -2.600403 57.010578 5.440875 -4.590881 99.698174 -0.000000 0.000002 -0.000001 -3.996433 -3.303960 64.593871 4.058822 -4.618643 82.610516 -0.000001 0.000002 0.000001 -0.000002 -0.000001 -0.000001 0.000000 -0.000003 -0.000001 -0.000002 -0.000001 -0.000000 0.000003 -0.000001 -0.000003 0.000003 0.000000 -0.000005 0.000003 -0.000001 -0.000003 0.000003 -0.000000 -0.000004 -0.000000 0.000001 -0.000000 -0.000000 0.000001 -0.000000 -0.000000 0.000001 -0.000000 -0.000000 0.000001 -0.000000 -0.000000 0.000001 -0.000000 -0.000000 0.000001 -0.000000 -0.000000 0.000001 -0.000000 -0.000001 -0.000003 -0.000000 -0.000001 0.000003 0.000001 
-1.724295 92.617416 2.346470 -15.699272 -39.119622 -8.590994 0.000000 0.000001 -0.000000 -22.620530 40.801030 30.972002 29.320028 -0.127621 -1.464446 -2.282246 2.618366 -5.416258 0.000000 -0.000001 -0.000000 0.000000 0.000001 -0.000000 3.950024 5.383365 -7.198896 33.988698 -0.037501 1.442541 -23.488013 -17.579269 5.138765 0.000000 0.000001 0.000000 0.000001 -0.000002 0.000000 8.567774 1.172153 -0.860417 14.888346 0.554143 -1.113252 14.883769 0.537884 -1.046593 -0.024737 2.639759 0.213182 -0.024768 2.639772 0.213171 0.000001 -0.000000 0.000001 -0.024749 2.639761 0.213183 -0.024608 2.639791 0.213166 -0.000000 0.000001 -0.000002 0.000001 -0.000000 0.000001 -37.340733 -3.233174 0.572591 -38.809623 -5.677716 -65.493748 0.000083 -63.939020 0.000095 -122.638287 -1.265639 26.946169 4.709228 9.560376 3.111983 19.473194 -1.474908 7.636922 -0.000000 -0.000003 -0.000001 -0.212811 3.933723 -36.747128 2.942135 5.078895 -60.144610 -0.000006 -0.000000 -0.000000 0.405916 5.507032 -52.453165 3.387126 5.308619 -65.057463 -0.000002 -0.000001 -0.000005 -0.074387 5.736757 -61.061427 4.055050 5.569494 -72.094907 -0.000001 0.000001 -0.000002 -6.565551 4.545176 -72.425215 3.299626 5.267184 -64.107835 0.000001 -0.000003 -0.000004 0.000000 0.000001 -0.000001 0.000000 0.000001 -0.000001 -0.000000 0.000002 -0.000001 0.000003 0.000000 0.000001 0.000003 -0.000001 0.000001 0.000003 0.000000 0.000001 0.000003 -0.000001 0.000001 -41.060365 -9.004575 -9.664425 -42.965045 59.927608 95.182204 -0.001100 99.176157 0.001094 -50.678648 -23.178643 -26.372062 8.377120 -4.904134 11.021998 21.620197 -18.183907 -18.379209 0.000001 -0.000002 -0.000001 -0.920036 1.683582 12.434972 0.748109 -2.533465 32.898269 -0.000000 0.000000 0.000003 3.413056 -7.186248 51.650259 6.296804 -4.359581 110.634646 0.000001 -0.000000 0.000001 -3.349050 -2.600402 57.010578 5.440874 -4.590883 99.698174 -0.000000 0.000001 -0.000001 -3.996433 -3.303956 64.593871 4.058827 -4.618641 82.610516 0.000000 0.000003 -0.000002 -0.000002 -0.000003 -0.000002 -0.000001 -0.000003 -0.000004 -0.000002 -0.000003 -0.000001 0.000001 0.000004 0.000002 0.000001 0.000005 0.000000 0.000001 0.000004 0.000002 0.000001 0.000005 0.000002 -0.000001 -0.000002 0.000001 -0.000001 -0.000002 0.000001 -0.000001 -0.000002 0.000001 -0.000001 -0.000002 0.000001 -0.000001 -0.000002 0.000001 -0.000001 -0.000002 0.000001 -0.000001 -0.000002 0.000001 -0.000000 0.000001 -0.000000 0.000000 0.000001 -0.000000 
-1.247835 92.507126 2.393343 -14.808589 -39.651587 -7.976710 -0.000000 -0.000001 -0.000000 -22.756068 39.749611 29.703806 29.864278 0.690854 -1.783286 -2.646663 3.225001 -4.984221 0.000000 -0.000000 0.000000 0.000000 -0.000001 -0.000000 1.907232 5.405601 -7.817601 35.000013 0.113830 1.659630 -22.811812 -16.952302 4.995407 -0.000000 -0.000000 0.000000 0.000000 0.000000 0.000000 8.933848 1.582241 -1.235399 14.089441 0.826784 -1.287827 14.085190 0.835391 -1.204834 -0.122304 2.453795 0.165180 -0.122306 2.453816 0.165169 -0.000001 -0.000001 0.000001 -0.122311 2.453810 0.165178 -0.122363 2.453808 0.165178 0.000000 -0.000001 -0.000000 -0.000001 -0.000001 0.000001 -37.151106 -1.879611 0.158117 -37.227987 -4.793304 -68.345216 -0.000039 -63.496854 -0.000042 -123.303561 -2.081022 24.108375 4.709227 9.560373 3.111984 19.473192 -1.474905 7.636917 -0.000000 0.000001 -0.000006 -0.212811 3.933722 -36.747125 2.942134 5.078899 -60.144617 -0.000004 0.000000 0.000001 0.405915 5.507035 -52.453165 3.387128 5.308621 -65.057477 -0.000000 0.000002 0.000001 -0.074387 5.736757 -61.061427 4.055049 5.569495 -72.094914 0.000001 0.000001 -0.000002 -6.565548 4.545176 -72.425215 3.299631 5.267188 -64.107835 0.000003 -0.000008 -0.000002 0.000001 -0.000000 0.000002 0.000001 -0.000000 0.000002 0.000001 0.000000 0.000002 0.000001 -0.000001 -0.000000 0.000001 -0.000002 0.000000 0.000001 -0.000001 -0.000000 0.000001 -0.000002 0.000001 -40.902666 -9.415024 -9.191252 -39.825225 61.269290 91.294904 0.000353 99.577041 -0.000345 -49.527102 -25.513784 -24.126224 8.377122 -4.904135 11.021996 21.620195 -18.183905 -18.379207 0.000002 -0.000003 0.000001 -0.920034 1.683582 12.434969 0.748107 -2.533466 32.898272 0.000001 -0.000001 -0.000001 3.413058 -7.186248 51.650259 6.296803 -4.359578 110.634646 0.000000 0.000001 0.000001 -3.349052 -2.600404 57.010575 5.440874 -4.590883 99.698174 -0.000002 0.000002 -0.000002 -3.996432 -3.303960 64.593864 4.058825 -4.618640 82.610516 -0.000001 0.000003 -0.000001 0.000001 0.000000 -0.000003 0.000001 -0.000001 -0.000004 0.000001 -0.000000 -0.000003 0.000002 0.000001 0.000000 0.000002 0.000002 -0.000000 0.000002 0.000001 0.000000 0.000002 0.000002 0.000001 0.000002 -0.000001 0.000001 0.000002 -0.000001 0.000001 0.000002 -0.000001 0.000001 0.000002 -0.000001 0.000001 0.000002 -0.000001 0.000001 0.000002 -0.000001 0.000001 0.000002 -0.000001 0.000001 -0.000000 0.000002 0.000000 -0.000000 -0.000001 -0.000000 
